<svg width="16" height="17" viewBox="0 0 16 17" fill="none" xmlns="http://www.w3.org/2000/svg">
<path d="M5.33317 13.6405H10.6665V12.3071H5.33317V13.6405ZM5.33317 11.6405H10.6665V10.3071H5.33317V11.6405ZM7.99984 9.1738C8.73317 8.50713 9.36095 7.91546 9.88317 7.3988C10.4054 6.88213 10.6665 6.34046 10.6665 5.7738C10.6665 5.3738 10.5221 5.02935 10.2332 4.74046C9.94428 4.45157 9.59984 4.30713 9.19984 4.30713C8.9665 4.30713 8.7415 4.35435 8.52484 4.4488C8.30817 4.54324 8.13317 4.6738 7.99984 4.84046C7.8665 4.6738 7.6915 4.54324 7.47484 4.4488C7.25817 4.35435 7.03317 4.30713 6.79984 4.30713C6.39984 4.30713 6.05539 4.45157 5.7665 4.74046C5.47762 5.02935 5.33317 5.3738 5.33317 5.7738C5.33317 6.34046 5.58595 6.8738 6.0915 7.3738C6.59706 7.8738 7.23317 8.4738 7.99984 9.1738ZM11.9998 15.6405H3.99984C3.63317 15.6405 3.31928 15.5099 3.05817 15.2488C2.79706 14.9877 2.6665 14.6738 2.6665 14.3071V3.64046C2.6665 3.2738 2.79706 2.95991 3.05817 2.6988C3.31928 2.43768 3.63317 2.30713 3.99984 2.30713H11.9998C12.3665 2.30713 12.6804 2.43768 12.9415 2.6988C13.2026 2.95991 13.3332 3.2738 13.3332 3.64046V14.3071C13.3332 14.6738 13.2026 14.9877 12.9415 15.2488C12.6804 15.5099 12.3665 15.6405 11.9998 15.6405ZM3.99984 14.3071H11.9998V3.64046H3.99984V14.3071Z" fill="#666666"/>
</svg>
